<?xml version="1.0" standalone="no"?>
<!DOCTYPE svg PUBLIC "-//W3C//DTD SVG 20010904//EN"
 "http://www.w3.org/TR/2001/REC-SVG-20010904/DTD/svg10.dtd">
<svg version="1.0" xmlns="http://www.w3.org/2000/svg"
 width="700.000000pt" height="700.000000pt" viewBox="0 0 700.000000 700.000000"
 preserveAspectRatio="xMidYMid meet">
<metadata>
Created by potrace 1.14, written by Peter Selinger 2001-2017
</metadata>
<g transform="translate(0.000000,700.000000) scale(0.100000,-0.100000)"
fill="#000000" stroke="none">
<path d="M1203 5466 c-153 -57 -255 -163 -299 -313 -16 -54 -17 -175 -17
-1658 0 -880 3 -1615 7 -1632 35 -178 175 -321 353 -363 41 -9 559 -12 2270
-12 2187 0 2219 0 2280 20 168 53 295 200 320 367 9 62 9 3204 0 3240 -21 84
-31 109 -65 161 -64 99 -162 170 -277 200 -41 11 -446 14 -2280 13 l-2230 0
-62 -23z m4527 -291 c20 -12 44 -38 57 -63 l22 -43 0 -1155 c0 -883 -3 -1153
-12 -1147 -12 7 -411 330 -457 369 -14 12 -86 72 -160 132 l-135 110 -30 -21
c-16 -12 -41 -31 -55 -43 -25 -22 -232 -191 -525 -429 -82 -66 -154 -126 -161
-132 -21 -21 -31 -16 -96 46 -35 33 -83 78 -108 101 -192 181 -436 409 -510
480 -15 14 -82 76 -149 139 -67 63 -139 130 -159 150 -21 20 -74 70 -118 111
-44 41 -144 136 -223 210 -78 74 -155 145 -169 158 -15 13 -59 55 -98 93 l-71
69 -22 -19 c-12 -11 -70 -64 -128 -118 -58 -54 -120 -111 -137 -127 -17 -15
-58 -53 -91 -85 -139 -129 -294 -273 -313 -289 -10 -9 -73 -67 -138 -128 -66
-61 -131 -122 -145 -135 -104 -96 -266 -245 -327 -304 -40 -38 -77 -71 -82
-73 -14 -5 -12 2028 1 2066 13 38 48 71 91 85 26 9 578 12 2224 12 2176 0
2189 0 2224 -20z m-3060 -1352 c52 -49 110 -104 130 -123 20 -19 90 -85 156
-147 65 -61 142 -133 170 -160 28 -26 101 -95 163 -153 62 -58 130 -121 150
-140 40 -38 268 -253 342 -322 25 -24 104 -97 174 -163 70 -66 144 -136 165
-155 21 -19 93 -87 161 -151 68 -64 142 -134 164 -154 22 -21 100 -94 174
-164 73 -69 148 -140 167 -156 l33 -30 -1762 0 c-1742 0 -1762 0 -1796 20 -19
11 -43 33 -55 48 -20 27 -21 40 -24 390 -3 343 -2 363 16 382 10 11 63 61 116
110 54 50 113 104 131 120 17 17 78 73 135 125 57 52 119 110 138 127 71 67
169 157 217 202 28 25 102 94 165 152 63 59 127 117 141 130 15 13 75 69 135
125 163 151 188 174 195 174 3 0 48 -39 99 -87z m2661 -1048 c19 -16 51 -42
70 -57 19 -14 117 -93 219 -176 l185 -149 0 -244 c0 -239 0 -245 -23 -277 -45
-62 -62 -66 -316 -67 -208 0 -230 1 -250 18 -11 10 -55 51 -96 90 -66 63 -263
248 -386 364 -23 21 -91 85 -153 142 -61 58 -110 108 -109 112 2 4 59 53 128
110 69 57 130 108 136 114 13 12 53 45 202 166 l106 87 126 -101 c69 -56 141
-115 161 -132z"/>
<path d="M4183 4859 c-128 -21 -259 -94 -351 -193 -48 -53 -58 -69 -102 -156
-52 -102 -67 -270 -36 -390 32 -125 107 -242 206 -323 53 -44 171 -104 220
-112 19 -3 51 -10 70 -14 37 -8 145 -7 193 3 54 10 132 39 187 69 70 39 187
156 227 227 111 197 105 435 -17 618 -137 205 -365 309 -597 271z m197 -284
c227 -80 285 -375 104 -533 -67 -60 -142 -85 -228 -78 -176 14 -298 147 -292
321 6 216 215 361 416 290z"/>
</g>
</svg>
